<mxfile host="65bd71144e">
    <diagram id="dB-3ol5uDr2LxEsU0GAV" name="Page-1">
        <mxGraphModel dx="450" dy="534" grid="1" gridSize="10" guides="1" tooltips="1" connect="1" arrows="1" fold="1" page="1" pageScale="1" pageWidth="850" pageHeight="1100" math="0" shadow="0">
            <root>
                <mxCell id="0"/>
                <mxCell id="1" parent="0"/>
                <mxCell id="2" value="" style="rounded=0;whiteSpace=wrap;html=1;gradientDirection=radial;fillColor=#FAF8F8;shadow=0;" parent="1" vertex="1">
                    <mxGeometry width="850" height="1100" as="geometry"/>
                </mxCell>
                <mxCell id="4" value="" style="rounded=0;whiteSpace=wrap;html=1;gradientDirection=radial;" parent="1" vertex="1">
                    <mxGeometry width="850" height="60" as="geometry"/>
                </mxCell>
                <mxCell id="5" value="" style="rounded=0;whiteSpace=wrap;html=1;gradientDirection=radial;fillColor=#CFCFCF;strokeColor=#b46504;" parent="1" vertex="1">
                    <mxGeometry y="60" width="850" height="60" as="geometry"/>
                </mxCell>
                <mxCell id="16" value="" style="rounded=0;whiteSpace=wrap;html=1;shadow=0;glass=0;labelBackgroundColor=#FAF8F8;labelBorderColor=none;strokeColor=#CFCFCF;fontFamily=Georgia;fontSize=24;fontColor=#2a252f;fillColor=#1B1720;gradientColor=none;gradientDirection=radial;" parent="1" vertex="1">
                    <mxGeometry y="880" width="850" height="220" as="geometry"/>
                </mxCell>
                <mxCell id="17" value="" style="ellipse;whiteSpace=wrap;html=1;" parent="1" vertex="1">
                    <mxGeometry x="380" y="910" width="90" height="90" as="geometry"/>
                </mxCell>
                <mxCell id="18" value="" style="ellipse;whiteSpace=wrap;html=1;" parent="1" vertex="1">
                    <mxGeometry x="170" y="910" width="90" height="90" as="geometry"/>
                </mxCell>
                <mxCell id="19" value="" style="ellipse;whiteSpace=wrap;html=1;" parent="1" vertex="1">
                    <mxGeometry x="590" y="910" width="90" height="90" as="geometry"/>
                </mxCell>
                <mxCell id="47" value="" style="rounded=0;whiteSpace=wrap;html=1;labelBackgroundColor=none;labelBorderColor=none;strokeColor=#FFFFFF;strokeWidth=2;fontSize=9;fontColor=#FFFFFF;fillColor=#1B1720;" parent="1" vertex="1">
                    <mxGeometry x="20" y="75" width="120" height="30" as="geometry"/>
                </mxCell>
                <mxCell id="49" value="" style="rounded=0;whiteSpace=wrap;html=1;labelBackgroundColor=none;labelBorderColor=none;strokeColor=#FFFFFF;strokeWidth=2;fontSize=9;fontColor=#FFFFFF;fillColor=#FFFFFF;" parent="1" vertex="1">
                    <mxGeometry x="10" y="20" width="220" height="20" as="geometry"/>
                </mxCell>
                <mxCell id="50" value="" style="rounded=0;whiteSpace=wrap;html=1;labelBackgroundColor=none;labelBorderColor=none;strokeColor=#FFFFFF;strokeWidth=2;fontSize=9;fontColor=#FFFFFF;fillColor=#FFFFFF;" parent="1" vertex="1">
                    <mxGeometry x="510" y="20" width="320" height="20" as="geometry"/>
                </mxCell>
                <mxCell id="51" value="" style="rounded=0;whiteSpace=wrap;html=1;labelBackgroundColor=none;labelBorderColor=none;strokeColor=#FFFFFF;strokeWidth=2;fontSize=9;fontColor=#FFFFFF;fillColor=#1B1720;" parent="1" vertex="1">
                    <mxGeometry x="770" y="80" width="70" height="20" as="geometry"/>
                </mxCell>
                <mxCell id="52" value="" style="rounded=0;whiteSpace=wrap;html=1;labelBackgroundColor=none;labelBorderColor=none;strokeColor=#FFFFFF;strokeWidth=2;fontSize=9;fontColor=#FFFFFF;fillColor=#1B1720;" parent="1" vertex="1">
                    <mxGeometry x="690" y="80" width="70" height="20" as="geometry"/>
                </mxCell>
                <mxCell id="53" value="" style="rounded=0;whiteSpace=wrap;html=1;labelBackgroundColor=none;labelBorderColor=none;strokeColor=#FFFFFF;strokeWidth=2;fontSize=9;fontColor=#FFFFFF;fillColor=#1B1720;" parent="1" vertex="1">
                    <mxGeometry x="610" y="80" width="70" height="20" as="geometry"/>
                </mxCell>
                <mxCell id="54" value="" style="rounded=0;whiteSpace=wrap;html=1;labelBackgroundColor=none;labelBorderColor=none;strokeColor=#FFFFFF;strokeWidth=2;fontSize=9;fontColor=#FFFFFF;fillColor=#1B1720;" parent="1" vertex="1">
                    <mxGeometry x="530" y="80" width="70" height="20" as="geometry"/>
                </mxCell>
                <mxCell id="55" value="" style="rounded=0;whiteSpace=wrap;html=1;labelBackgroundColor=none;labelBorderColor=none;strokeColor=#FFFFFF;strokeWidth=2;fontSize=9;fontColor=#FFFFFF;fillColor=#1B1720;" parent="1" vertex="1">
                    <mxGeometry x="450" y="80" width="70" height="20" as="geometry"/>
                </mxCell>
                <mxCell id="56" value="" style="rounded=0;whiteSpace=wrap;html=1;strokeColor=#000000;fillColor=#FFFFFF;" parent="1" vertex="1">
                    <mxGeometry x="365" y="1020" width="120" height="30" as="geometry"/>
                </mxCell>
                <mxCell id="57" value="" style="rounded=0;whiteSpace=wrap;html=1;" vertex="1" parent="1">
                    <mxGeometry x="185" y="240" width="480" height="40" as="geometry"/>
                </mxCell>
                <mxCell id="58" value="" style="rounded=0;whiteSpace=wrap;html=1;fillColor=none;strokeColor=#000000;" vertex="1" parent="1">
                    <mxGeometry x="120" y="420" width="280" height="150" as="geometry"/>
                </mxCell>
                <mxCell id="59" value="" style="rounded=0;whiteSpace=wrap;html=1;fillColor=none;strokeColor=#000000;" vertex="1" parent="1">
                    <mxGeometry x="450" y="420" width="280" height="150" as="geometry"/>
                </mxCell>
                <mxCell id="61" value="" style="ellipse;whiteSpace=wrap;html=1;" vertex="1" parent="1">
                    <mxGeometry x="140" y="430" width="80" height="80" as="geometry"/>
                </mxCell>
                <mxCell id="62" value="" style="rounded=0;whiteSpace=wrap;html=1;" vertex="1" parent="1">
                    <mxGeometry x="240" y="440" width="120" height="10" as="geometry"/>
                </mxCell>
                <mxCell id="63" value="" style="rounded=0;whiteSpace=wrap;html=1;strokeColor=#000000;fillColor=none;" vertex="1" parent="1">
                    <mxGeometry x="240" y="465" width="80" height="10" as="geometry"/>
                </mxCell>
                <mxCell id="64" value="" style="rounded=0;whiteSpace=wrap;html=1;strokeColor=#000000;fillColor=none;" vertex="1" parent="1">
                    <mxGeometry x="140" y="520" width="230" height="40" as="geometry"/>
                </mxCell>
                <mxCell id="67" value="" style="ellipse;whiteSpace=wrap;html=1;" vertex="1" parent="1">
                    <mxGeometry x="470" y="430" width="80" height="80" as="geometry"/>
                </mxCell>
                <mxCell id="68" value="" style="rounded=0;whiteSpace=wrap;html=1;" vertex="1" parent="1">
                    <mxGeometry x="570" y="440" width="120" height="10" as="geometry"/>
                </mxCell>
                <mxCell id="69" value="" style="rounded=0;whiteSpace=wrap;html=1;strokeColor=#000000;fillColor=none;" vertex="1" parent="1">
                    <mxGeometry x="570" y="465" width="80" height="10" as="geometry"/>
                </mxCell>
                <mxCell id="70" value="" style="rounded=0;whiteSpace=wrap;html=1;strokeColor=#000000;fillColor=none;" vertex="1" parent="1">
                    <mxGeometry x="470" y="520" width="230" height="40" as="geometry"/>
                </mxCell>
                <mxCell id="71" value="" style="rounded=0;whiteSpace=wrap;html=1;strokeColor=#000000;fillColor=default;" vertex="1" parent="1">
                    <mxGeometry x="360" y="620" width="40" height="30" as="geometry"/>
                </mxCell>
                <mxCell id="72" value="" style="rounded=0;whiteSpace=wrap;html=1;strokeColor=#000000;fillColor=default;" vertex="1" parent="1">
                    <mxGeometry x="450" y="620" width="40" height="30" as="geometry"/>
                </mxCell>
            </root>
        </mxGraphModel>
    </diagram>
</mxfile>